<?xml version="1.0" encoding="UTF-8" standalone="no"?>
<!DOCTYPE svg PUBLIC "-//W3C//DTD SVG 1.1//EN"
 "http://www.w3.org/Graphics/SVG/1.1/DTD/svg11.dtd">
<!-- Generated by graphviz version 2.43.0 (0)
 -->
<!-- Title: adder_brent_kung Pages: 1 -->
<svg width="1167pt" height="804pt"
 viewBox="0.00 0.00 1167.10 803.60" xmlns="http://www.w3.org/2000/svg" xmlns:xlink="http://www.w3.org/1999/xlink">
<g id="graph0" class="graph" transform="scale(1 1) rotate(0) translate(28.8 774.8)">
<title>adder_brent_kung</title>
<polygon fill="white" stroke="transparent" points="-28.8,28.8 -28.8,-774.8 1138.3,-774.8 1138.3,28.8 -28.8,28.8"/>
<!-- title -->
<g id="node1" class="node">
<title>title</title>
<text text-anchor="middle" x="785.5" y="-720.7" font-family="Helvetica,sans-Serif" font-size="16.00" fill="#111827">adder_brent_kung — Two&#45;Phase Prefix (example: W=8, 3 forward + 2 reverse)</text>
</g>
<!-- i0 -->
<g id="node2" class="node">
<title>i0</title>
<path fill="#bbf7d0" stroke="#22c55e" stroke-width="2" d="M806,-631C806,-631 765,-631 765,-631 759,-631 753,-625 753,-619 753,-619 753,-596 753,-596 753,-590 759,-584 765,-584 765,-584 806,-584 806,-584 812,-584 818,-590 818,-596 818,-596 818,-619 818,-619 818,-625 812,-631 806,-631"/>
<text text-anchor="middle" x="785.5" y="-604.7" font-family="Helvetica,sans-Serif" font-size="11.00">g0p0</text>
</g>
<!-- title&#45;&gt;i0 -->
<!-- up1_1 -->
<g id="node11" class="node">
<title>up1_1</title>
<path fill="#bfdbfe" stroke="#3b82f6" stroke-width="2" d="M699,-512C699,-512 658,-512 658,-512 652,-512 646,-506 646,-500 646,-500 646,-477 646,-477 646,-471 652,-465 658,-465 658,-465 699,-465 699,-465 705,-465 711,-471 711,-477 711,-477 711,-500 711,-500 711,-506 705,-512 699,-512"/>
<text text-anchor="middle" x="678.5" y="-491.7" font-family="Helvetica,sans-Serif" font-size="11.00">G0:1</text>
<text text-anchor="middle" x="678.5" y="-479.7" font-family="Helvetica,sans-Serif" font-size="11.00">P0:1</text>
</g>
<!-- i0&#45;&gt;up1_1 -->
<g id="edge3" class="edge">
<title>i0&#45;&gt;up1_1</title>
<path fill="none" stroke="#3b82f6" stroke-width="1.5" d="M764.87,-583.94C748.25,-565.77 724.72,-540.04 706.42,-520.03"/>
<polygon fill="#3b82f6" stroke="#3b82f6" stroke-width="1.5" points="708.76,-517.41 699.43,-512.39 703.6,-522.13 708.76,-517.41"/>
</g>
<!-- pt0 -->
<g id="node22" class="node">
<title>pt0</title>
<polygon fill="#f5f5f5" stroke="#9ca3af" stroke-width="2" points="835,-155 770,-155 770,-108 835,-108 835,-155"/>
<text text-anchor="middle" x="802.5" y="-128.7" font-family="Helvetica,sans-Serif" font-size="11.00">G0</text>
</g>
<!-- i0&#45;&gt;pt0 -->
<g id="edge23" class="edge">
<title>i0&#45;&gt;pt0</title>
<path fill="none" stroke="#374151" stroke-width="1.5" d="M786.31,-583.96C789.06,-507.23 798.07,-255.96 801.32,-165.41"/>
<polygon fill="#374151" stroke="#374151" stroke-width="1.5" points="804.83,-165.3 801.69,-155.18 797.83,-165.05 804.83,-165.3"/>
</g>
<!-- i1 -->
<g id="node3" class="node">
<title>i1</title>
<path fill="#bbf7d0" stroke="#22c55e" stroke-width="2" d="M699,-631C699,-631 658,-631 658,-631 652,-631 646,-625 646,-619 646,-619 646,-596 646,-596 646,-590 652,-584 658,-584 658,-584 699,-584 699,-584 705,-584 711,-590 711,-596 711,-596 711,-619 711,-619 711,-625 705,-631 699,-631"/>
<text text-anchor="middle" x="678.5" y="-604.7" font-family="Helvetica,sans-Serif" font-size="11.00">g1p1</text>
</g>
<!-- i1&#45;&gt;up1_1 -->
<g id="edge4" class="edge">
<title>i1&#45;&gt;up1_1</title>
<path fill="none" stroke="#3b82f6" stroke-width="1.5" d="M678.5,-583.94C678.5,-566.49 678.5,-542.08 678.5,-522.44"/>
<polygon fill="#3b82f6" stroke="#3b82f6" stroke-width="1.5" points="682,-522.39 678.5,-512.39 675,-522.39 682,-522.39"/>
</g>
<!-- i2 -->
<g id="node4" class="node">
<title>i2</title>
<path fill="#bbf7d0" stroke="#22c55e" stroke-width="2" d="M574,-631C574,-631 533,-631 533,-631 527,-631 521,-625 521,-619 521,-619 521,-596 521,-596 521,-590 527,-584 533,-584 533,-584 574,-584 574,-584 580,-584 586,-590 586,-596 586,-596 586,-619 586,-619 586,-625 580,-631 574,-631"/>
<text text-anchor="middle" x="553.5" y="-604.7" font-family="Helvetica,sans-Serif" font-size="11.00">g2p2</text>
</g>
<!-- up1_3 -->
<g id="node12" class="node">
<title>up1_3</title>
<path fill="#bfdbfe" stroke="#3b82f6" stroke-width="2" d="M479,-512C479,-512 438,-512 438,-512 432,-512 426,-506 426,-500 426,-500 426,-477 426,-477 426,-471 432,-465 438,-465 438,-465 479,-465 479,-465 485,-465 491,-471 491,-477 491,-477 491,-500 491,-500 491,-506 485,-512 479,-512"/>
<text text-anchor="middle" x="458.5" y="-491.7" font-family="Helvetica,sans-Serif" font-size="11.00">G2:3</text>
<text text-anchor="middle" x="458.5" y="-479.7" font-family="Helvetica,sans-Serif" font-size="11.00">P2:3</text>
</g>
<!-- i2&#45;&gt;up1_3 -->
<g id="edge5" class="edge">
<title>i2&#45;&gt;up1_3</title>
<path fill="none" stroke="#3b82f6" stroke-width="1.5" d="M535.18,-583.94C520.49,-565.85 499.72,-540.27 483.5,-520.29"/>
<polygon fill="#3b82f6" stroke="#3b82f6" stroke-width="1.5" points="486.11,-517.95 477.08,-512.39 480.67,-522.36 486.11,-517.95"/>
</g>
<!-- dn2_2 -->
<g id="node19" class="node">
<title>dn2_2</title>
<path fill="#bfdbfe" stroke="#3b82f6" stroke-width="2" d="M611,-155C611,-155 570,-155 570,-155 564,-155 558,-149 558,-143 558,-143 558,-120 558,-120 558,-114 564,-108 570,-108 570,-108 611,-108 611,-108 617,-108 623,-114 623,-120 623,-120 623,-143 623,-143 623,-149 617,-155 611,-155"/>
<text text-anchor="middle" x="590.5" y="-128.7" font-family="Helvetica,sans-Serif" font-size="11.00">G0:2</text>
</g>
<!-- i2&#45;&gt;dn2_2 -->
<g id="edge18" class="edge">
<title>i2&#45;&gt;dn2_2</title>
<path fill="none" stroke="#f97316" stroke-width="1.5" d="M555.26,-583.96C561.25,-507.23 580.86,-255.96 587.93,-165.41"/>
<polygon fill="#f97316" stroke="#f97316" stroke-width="1.5" points="591.44,-165.42 588.73,-155.18 584.46,-164.88 591.44,-165.42"/>
</g>
<!-- i3 -->
<g id="node5" class="node">
<title>i3</title>
<path fill="#bbf7d0" stroke="#22c55e" stroke-width="2" d="M473,-631C473,-631 432,-631 432,-631 426,-631 420,-625 420,-619 420,-619 420,-596 420,-596 420,-590 426,-584 432,-584 432,-584 473,-584 473,-584 479,-584 485,-590 485,-596 485,-596 485,-619 485,-619 485,-625 479,-631 473,-631"/>
<text text-anchor="middle" x="452.5" y="-604.7" font-family="Helvetica,sans-Serif" font-size="11.00">g3p3</text>
</g>
<!-- i3&#45;&gt;up1_3 -->
<g id="edge6" class="edge">
<title>i3&#45;&gt;up1_3</title>
<path fill="none" stroke="#3b82f6" stroke-width="1.5" d="M453.66,-583.94C454.55,-566.49 455.8,-542.08 456.81,-522.44"/>
<polygon fill="#3b82f6" stroke="#3b82f6" stroke-width="1.5" points="460.31,-522.55 457.33,-512.39 453.32,-522.2 460.31,-522.55"/>
</g>
<!-- i4 -->
<g id="node6" class="node">
<title>i4</title>
<path fill="#bbf7d0" stroke="#22c55e" stroke-width="2" d="M356,-631C356,-631 315,-631 315,-631 309,-631 303,-625 303,-619 303,-619 303,-596 303,-596 303,-590 309,-584 315,-584 315,-584 356,-584 356,-584 362,-584 368,-590 368,-596 368,-596 368,-619 368,-619 368,-625 362,-631 356,-631"/>
<text text-anchor="middle" x="335.5" y="-604.7" font-family="Helvetica,sans-Serif" font-size="11.00">g4p4</text>
</g>
<!-- up1_5 -->
<g id="node13" class="node">
<title>up1_5</title>
<path fill="#bfdbfe" stroke="#3b82f6" stroke-width="2" d="M258,-512C258,-512 217,-512 217,-512 211,-512 205,-506 205,-500 205,-500 205,-477 205,-477 205,-471 211,-465 217,-465 217,-465 258,-465 258,-465 264,-465 270,-471 270,-477 270,-477 270,-500 270,-500 270,-506 264,-512 258,-512"/>
<text text-anchor="middle" x="237.5" y="-491.7" font-family="Helvetica,sans-Serif" font-size="11.00">G4:5</text>
<text text-anchor="middle" x="237.5" y="-479.7" font-family="Helvetica,sans-Serif" font-size="11.00">P4:5</text>
</g>
<!-- i4&#45;&gt;up1_5 -->
<g id="edge7" class="edge">
<title>i4&#45;&gt;up1_5</title>
<path fill="none" stroke="#3b82f6" stroke-width="1.5" d="M316.6,-583.94C301.45,-565.85 280.02,-540.27 263.29,-520.29"/>
<polygon fill="#3b82f6" stroke="#3b82f6" stroke-width="1.5" points="265.78,-517.81 256.67,-512.39 260.41,-522.3 265.78,-517.81"/>
</g>
<!-- dn2_4 -->
<g id="node20" class="node">
<title>dn2_4</title>
<path fill="#bfdbfe" stroke="#3b82f6" stroke-width="2" d="M371,-155C371,-155 330,-155 330,-155 324,-155 318,-149 318,-143 318,-143 318,-120 318,-120 318,-114 324,-108 330,-108 330,-108 371,-108 371,-108 377,-108 383,-114 383,-120 383,-120 383,-143 383,-143 383,-149 377,-155 371,-155"/>
<text text-anchor="middle" x="350.5" y="-128.7" font-family="Helvetica,sans-Serif" font-size="11.00">G0:4</text>
</g>
<!-- i4&#45;&gt;dn2_4 -->
<g id="edge20" class="edge">
<title>i4&#45;&gt;dn2_4</title>
<path fill="none" stroke="#f97316" stroke-width="1.5" d="M336.21,-583.96C338.64,-507.23 346.59,-255.96 349.46,-165.41"/>
<polygon fill="#f97316" stroke="#f97316" stroke-width="1.5" points="352.96,-165.29 349.78,-155.18 345.97,-165.07 352.96,-165.29"/>
</g>
<!-- i5 -->
<g id="node7" class="node">
<title>i5</title>
<path fill="#bbf7d0" stroke="#22c55e" stroke-width="2" d="M255,-631C255,-631 214,-631 214,-631 208,-631 202,-625 202,-619 202,-619 202,-596 202,-596 202,-590 208,-584 214,-584 214,-584 255,-584 255,-584 261,-584 267,-590 267,-596 267,-596 267,-619 267,-619 267,-625 261,-631 255,-631"/>
<text text-anchor="middle" x="234.5" y="-604.7" font-family="Helvetica,sans-Serif" font-size="11.00">g5p5</text>
</g>
<!-- i5&#45;&gt;up1_5 -->
<g id="edge8" class="edge">
<title>i5&#45;&gt;up1_5</title>
<path fill="none" stroke="#3b82f6" stroke-width="1.5" d="M235.08,-583.94C235.53,-566.49 236.15,-542.08 236.66,-522.44"/>
<polygon fill="#3b82f6" stroke="#3b82f6" stroke-width="1.5" points="240.16,-522.48 236.91,-512.39 233.16,-522.3 240.16,-522.48"/>
</g>
<!-- i6 -->
<g id="node8" class="node">
<title>i6</title>
<path fill="#bbf7d0" stroke="#22c55e" stroke-width="2" d="M154,-631C154,-631 113,-631 113,-631 107,-631 101,-625 101,-619 101,-619 101,-596 101,-596 101,-590 107,-584 113,-584 113,-584 154,-584 154,-584 160,-584 166,-590 166,-596 166,-596 166,-619 166,-619 166,-625 160,-631 154,-631"/>
<text text-anchor="middle" x="133.5" y="-604.7" font-family="Helvetica,sans-Serif" font-size="11.00">g6p6</text>
</g>
<!-- up1_7 -->
<g id="node14" class="node">
<title>up1_7</title>
<path fill="#bfdbfe" stroke="#3b82f6" stroke-width="2" d="M82,-512C82,-512 41,-512 41,-512 35,-512 29,-506 29,-500 29,-500 29,-477 29,-477 29,-471 35,-465 41,-465 41,-465 82,-465 82,-465 88,-465 94,-471 94,-477 94,-477 94,-500 94,-500 94,-506 88,-512 82,-512"/>
<text text-anchor="middle" x="61.5" y="-491.7" font-family="Helvetica,sans-Serif" font-size="11.00">G6:7</text>
<text text-anchor="middle" x="61.5" y="-479.7" font-family="Helvetica,sans-Serif" font-size="11.00">P6:7</text>
</g>
<!-- i6&#45;&gt;up1_7 -->
<g id="edge9" class="edge">
<title>i6&#45;&gt;up1_7</title>
<path fill="none" stroke="#3b82f6" stroke-width="1.5" d="M119.62,-583.94C108.63,-566.09 93.16,-540.95 80.94,-521.09"/>
<polygon fill="#3b82f6" stroke="#3b82f6" stroke-width="1.5" points="83.81,-519.07 75.59,-512.39 77.85,-522.74 83.81,-519.07"/>
</g>
<!-- dn2_6 -->
<g id="node21" class="node">
<title>dn2_6</title>
<path fill="#bfdbfe" stroke="#3b82f6" stroke-width="2" d="M239,-155C239,-155 198,-155 198,-155 192,-155 186,-149 186,-143 186,-143 186,-120 186,-120 186,-114 192,-108 198,-108 198,-108 239,-108 239,-108 245,-108 251,-114 251,-120 251,-120 251,-143 251,-143 251,-149 245,-155 239,-155"/>
<text text-anchor="middle" x="218.5" y="-128.7" font-family="Helvetica,sans-Serif" font-size="11.00">G0:6</text>
</g>
<!-- i6&#45;&gt;dn2_6 -->
<g id="edge22" class="edge">
<title>i6&#45;&gt;dn2_6</title>
<path fill="none" stroke="#f97316" stroke-width="1.5" d="M135.16,-583.99C139.84,-524.82 154.91,-360.35 186.5,-227 191.52,-205.81 199.33,-182.64 205.97,-164.55"/>
<polygon fill="#f97316" stroke="#f97316" stroke-width="1.5" points="209.3,-165.66 209.52,-155.06 202.74,-163.2 209.3,-165.66"/>
</g>
<!-- i7 -->
<g id="node9" class="node">
<title>i7</title>
<path fill="#bbf7d0" stroke="#22c55e" stroke-width="2" d="M53,-631C53,-631 12,-631 12,-631 6,-631 0,-625 0,-619 0,-619 0,-596 0,-596 0,-590 6,-584 12,-584 12,-584 53,-584 53,-584 59,-584 65,-590 65,-596 65,-596 65,-619 65,-619 65,-625 59,-631 53,-631"/>
<text text-anchor="middle" x="32.5" y="-604.7" font-family="Helvetica,sans-Serif" font-size="11.00">g7p7</text>
</g>
<!-- i7&#45;&gt;up1_7 -->
<g id="edge10" class="edge">
<title>i7&#45;&gt;up1_7</title>
<path fill="none" stroke="#3b82f6" stroke-width="1.5" d="M38.09,-583.94C42.44,-566.41 48.52,-541.85 53.4,-522.17"/>
<polygon fill="#3b82f6" stroke="#3b82f6" stroke-width="1.5" points="56.82,-522.94 55.83,-512.39 50.02,-521.25 56.82,-522.94"/>
</g>
<!-- ph1 -->
<g id="node10" class="node">
<title>ph1</title>
<text text-anchor="middle" x="894.5" y="-491.9" font-family="Helvetica,sans-Serif" font-size="12.00" fill="#1e3a8a">Phase 1</text>
<text text-anchor="middle" x="894.5" y="-478.9" font-family="Helvetica,sans-Serif" font-size="12.00" fill="#1e3a8a">Up&#45;sweep</text>
</g>
<!-- up2_3 -->
<g id="node15" class="node">
<title>up2_3</title>
<path fill="#bfdbfe" stroke="#3b82f6" stroke-width="2" d="M479,-393C479,-393 438,-393 438,-393 432,-393 426,-387 426,-381 426,-381 426,-358 426,-358 426,-352 432,-346 438,-346 438,-346 479,-346 479,-346 485,-346 491,-352 491,-358 491,-358 491,-381 491,-381 491,-387 485,-393 479,-393"/>
<text text-anchor="middle" x="458.5" y="-372.7" font-family="Helvetica,sans-Serif" font-size="11.00">G0:3</text>
<text text-anchor="middle" x="458.5" y="-360.7" font-family="Helvetica,sans-Serif" font-size="11.00">P0:3</text>
</g>
<!-- up1_1&#45;&gt;up2_3 -->
<g id="edge11" class="edge">
<title>up1_1&#45;&gt;up2_3</title>
<path fill="none" stroke="#3b82f6" stroke-width="1.5" d="M645.56,-469.98C606.81,-449.38 542.42,-415.13 500.21,-392.68"/>
<polygon fill="#3b82f6" stroke="#3b82f6" stroke-width="1.5" points="501.77,-389.55 491.3,-387.94 498.49,-395.73 501.77,-389.55"/>
</g>
<!-- up1_1&#45;&gt;dn2_2 -->
<g id="edge17" class="edge">
<title>up1_1&#45;&gt;dn2_2</title>
<path fill="none" stroke="#f97316" stroke-width="1.5" d="M672.86,-464.75C657.71,-403.64 616.09,-235.72 598.51,-164.79"/>
<polygon fill="#f97316" stroke="#f97316" stroke-width="1.5" points="601.9,-163.92 596.09,-155.06 595.1,-165.61 601.9,-163.92"/>
</g>
<!-- pt1 -->
<g id="node23" class="node">
<title>pt1</title>
<polygon fill="#f5f5f5" stroke="#9ca3af" stroke-width="2" points="734,-155 669,-155 669,-108 734,-108 734,-155"/>
<text text-anchor="middle" x="701.5" y="-128.7" font-family="Helvetica,sans-Serif" font-size="11.00">G0:1</text>
</g>
<!-- up1_1&#45;&gt;pt1 -->
<g id="edge24" class="edge">
<title>up1_1&#45;&gt;pt1</title>
<path fill="none" stroke="#9ca3af" stroke-width="1.5" stroke-dasharray="5,2" d="M679.97,-464.75C683.93,-403.76 694.77,-236.41 699.38,-165.23"/>
<polygon fill="#9ca3af" stroke="#9ca3af" stroke-width="1.5" points="702.88,-165.26 700.04,-155.06 695.9,-164.81 702.88,-165.26"/>
</g>
<!-- up1_3&#45;&gt;up2_3 -->
<g id="edge12" class="edge">
<title>up1_3&#45;&gt;up2_3</title>
<path fill="none" stroke="#3b82f6" stroke-width="1.5" d="M458.5,-464.94C458.5,-447.49 458.5,-423.08 458.5,-403.44"/>
<polygon fill="#3b82f6" stroke="#3b82f6" stroke-width="1.5" points="462,-403.39 458.5,-393.39 455,-403.39 462,-403.39"/>
</g>
<!-- up2_7 -->
<g id="node16" class="node">
<title>up2_7</title>
<path fill="#bfdbfe" stroke="#3b82f6" stroke-width="2" d="M82,-393C82,-393 41,-393 41,-393 35,-393 29,-387 29,-381 29,-381 29,-358 29,-358 29,-352 35,-346 41,-346 41,-346 82,-346 82,-346 88,-346 94,-352 94,-358 94,-358 94,-381 94,-381 94,-387 88,-393 82,-393"/>
<text text-anchor="middle" x="61.5" y="-372.7" font-family="Helvetica,sans-Serif" font-size="11.00">G0:7</text>
<text text-anchor="middle" x="61.5" y="-360.7" font-family="Helvetica,sans-Serif" font-size="11.00">P0:7</text>
</g>
<!-- up1_5&#45;&gt;up2_7 -->
<g id="edge13" class="edge">
<title>up1_5&#45;&gt;up2_7</title>
<path fill="none" stroke="#3b82f6" stroke-width="1.5" d="M204.81,-465.77C175.91,-446.56 133.64,-418.45 102.49,-397.75"/>
<polygon fill="#3b82f6" stroke="#3b82f6" stroke-width="1.5" points="104.28,-394.74 94.02,-392.12 100.41,-400.57 104.28,-394.74"/>
</g>
<!-- dn1_5 -->
<g id="node18" class="node">
<title>dn1_5</title>
<path fill="#bfdbfe" stroke="#3b82f6" stroke-width="2" d="M258,-274C258,-274 217,-274 217,-274 211,-274 205,-268 205,-262 205,-262 205,-239 205,-239 205,-233 211,-227 217,-227 217,-227 258,-227 258,-227 264,-227 270,-233 270,-239 270,-239 270,-262 270,-262 270,-268 264,-274 258,-274"/>
<text text-anchor="middle" x="237.5" y="-253.7" font-family="Helvetica,sans-Serif" font-size="11.00">G0:5</text>
<text text-anchor="middle" x="237.5" y="-241.7" font-family="Helvetica,sans-Serif" font-size="11.00">P0:5</text>
</g>
<!-- up1_5&#45;&gt;dn1_5 -->
<g id="edge16" class="edge">
<title>up1_5&#45;&gt;dn1_5</title>
<path fill="none" stroke="#f97316" stroke-width="1.5" d="M237.5,-464.87C237.5,-422.93 237.5,-332.99 237.5,-284.35"/>
<polygon fill="#f97316" stroke="#f97316" stroke-width="1.5" points="241,-284.06 237.5,-274.06 234,-284.06 241,-284.06"/>
</g>
<!-- up1_7&#45;&gt;up2_7 -->
<g id="edge14" class="edge">
<title>up1_7&#45;&gt;up2_7</title>
<path fill="none" stroke="#3b82f6" stroke-width="1.5" d="M61.5,-464.94C61.5,-447.49 61.5,-423.08 61.5,-403.44"/>
<polygon fill="#3b82f6" stroke="#3b82f6" stroke-width="1.5" points="65,-403.39 61.5,-393.39 58,-403.39 65,-403.39"/>
</g>
<!-- up2_3&#45;&gt;dn1_5 -->
<g id="edge15" class="edge">
<title>up2_3&#45;&gt;dn1_5</title>
<path fill="none" stroke="#f97316" stroke-width="1.5" d="M425.89,-351.24C386.96,-330.63 321.8,-296.13 279.23,-273.59"/>
<polygon fill="#f97316" stroke="#f97316" stroke-width="1.5" points="280.72,-270.42 270.24,-268.83 277.44,-276.61 280.72,-270.42"/>
</g>
<!-- up2_3&#45;&gt;dn2_4 -->
<g id="edge19" class="edge">
<title>up2_3&#45;&gt;dn2_4</title>
<path fill="none" stroke="#f97316" stroke-width="1.5" d="M448.14,-345.87C428.83,-303.67 387.27,-212.86 365.11,-164.43"/>
<polygon fill="#f97316" stroke="#f97316" stroke-width="1.5" points="368.17,-162.7 360.82,-155.06 361.8,-165.61 368.17,-162.7"/>
</g>
<!-- pt3 -->
<g id="node24" class="node">
<title>pt3</title>
<polygon fill="#f5f5f5" stroke="#9ca3af" stroke-width="2" points="512,-155 447,-155 447,-108 512,-108 512,-155"/>
<text text-anchor="middle" x="479.5" y="-128.7" font-family="Helvetica,sans-Serif" font-size="11.00">G0:3</text>
</g>
<!-- up2_3&#45;&gt;pt3 -->
<g id="edge25" class="edge">
<title>up2_3&#45;&gt;pt3</title>
<path fill="none" stroke="#9ca3af" stroke-width="1.5" stroke-dasharray="5,2" d="M460.51,-345.87C464.25,-303.85 472.28,-213.61 476.6,-165.04"/>
<polygon fill="#9ca3af" stroke="#9ca3af" stroke-width="1.5" points="480.09,-165.33 477.49,-155.06 473.12,-164.71 480.09,-165.33"/>
</g>
<!-- pt7 -->
<g id="node25" class="node">
<title>pt7</title>
<polygon fill="#f5f5f5" stroke="#9ca3af" stroke-width="2" points="94,-155 29,-155 29,-108 94,-108 94,-155"/>
<text text-anchor="middle" x="61.5" y="-128.7" font-family="Helvetica,sans-Serif" font-size="11.00">G0:7</text>
</g>
<!-- up2_7&#45;&gt;pt7 -->
<g id="edge26" class="edge">
<title>up2_7&#45;&gt;pt7</title>
<path fill="none" stroke="#9ca3af" stroke-width="1.5" stroke-dasharray="5,2" d="M61.5,-345.87C61.5,-303.93 61.5,-213.99 61.5,-165.35"/>
<polygon fill="#9ca3af" stroke="#9ca3af" stroke-width="1.5" points="65,-165.06 61.5,-155.06 58,-165.06 65,-165.06"/>
</g>
<!-- ph2 -->
<g id="node17" class="node">
<title>ph2</title>
<text text-anchor="middle" x="902.5" y="-253.9" font-family="Helvetica,sans-Serif" font-size="12.00" fill="#f97316">Phase 2</text>
<text text-anchor="middle" x="902.5" y="-240.9" font-family="Helvetica,sans-Serif" font-size="12.00" fill="#f97316">Down&#45;sweep</text>
</g>
<!-- dn1_5&#45;&gt;dn2_6 -->
<g id="edge21" class="edge">
<title>dn1_5&#45;&gt;dn2_6</title>
<path fill="none" stroke="#f97316" stroke-width="1.5" d="M233.84,-226.94C231,-209.49 227.04,-185.08 223.85,-165.44"/>
<polygon fill="#f97316" stroke="#f97316" stroke-width="1.5" points="227.27,-164.7 222.22,-155.39 220.37,-165.82 227.27,-164.7"/>
</g>
<!-- note -->
<g id="node26" class="node">
<title>note</title>
<text text-anchor="middle" x="802.5" y="-14.9" font-family="Helvetica,sans-Serif" font-size="12.00" fill="#374151">Depth: 2*log2(W)&#45;1 &#160;| &#160;Cells: ~2W (vs W*log2W for Kogge&#45;Stone) &#160;| &#160;Fan&#45;out: 2</text>
</g>
<!-- pt0&#45;&gt;note -->
</g>
</svg>
